<svg id="Flat" height="512" viewBox="0 0 512 512" width="512" xmlns="http://www.w3.org/2000/svg"><path d="m48 24v464h320v-336l-120-128z" fill="#e9eef2"/><g fill="#dadcde"><path d="m176 192h-48a8 8 0 0 1 0-16h48a8 8 0 0 1 0 16z"/><path d="m320 192h-112a8 8 0 0 1 0-16h112a8 8 0 0 1 0 16z"/><path d="m208 224h-112a8 8 0 0 1 0-16h112a8 8 0 0 1 0 16z"/><path d="m208 256h-112a8 8 0 0 1 0-16h112a8 8 0 0 1 0 16z"/></g><path d="m240 216h80v32h-80z" fill="#c3c6c7"/><path d="m248 152h120l-120-128z" fill="#dadcde"/><path d="m96 72h112v80h-112z" fill="#c3c6c7"/><path d="m320 288h-192a8 8 0 0 1 0-16h192a8 8 0 0 1 0 16z" fill="#dadcde"/><path d="m160 320h-64a8 8 0 0 1 0-16h64a8 8 0 0 1 0 16z" fill="#dadcde"/><path d="m320 320h-128a8 8 0 0 1 0-16h128a8 8 0 0 1 0 16z" fill="#dadcde"/><path d="m96 344h48v96h-48z" fill="#c3c6c7"/><path d="m464 408v-48h-27.668a79.431 79.431 0 0 0 -6.065-14.267l17.733-17.733-32-32-17.733 17.733a79.462 79.462 0 0 0 -14.267-6.065v-27.668h-48v27.668a79.462 79.462 0 0 0 -14.267 6.065l-17.733-17.733-32 32 17.733 17.733a79.431 79.431 0 0 0 -6.065 14.267h-27.668v48h27.668a79.462 79.462 0 0 0 6.065 14.267l-17.733 17.733 32 32 17.733-17.733a79.462 79.462 0 0 0 14.267 6.065v27.668h48v-27.668a79.462 79.462 0 0 0 14.267-6.065l17.733 17.733 32-32-17.733-17.733a79.462 79.462 0 0 0 6.065-14.267zm-104 24a48 48 0 1 1 48-48 48 48 0 0 1 -48 48z" fill="#2978b8"/><path d="m176 344h48v96h-48z" fill="#c3c6c7"/></svg>