<svg id="Capa_1" enable-background="new 0 0 512 512" height="512" viewBox="0 0 512 512" width="512" xmlns="http://www.w3.org/2000/svg"><path d="m421.5 512h-331c-30.327 0-55-24.673-55-55v-202.723c0-20.606 11.359-39.308 29.646-48.807l72.379-37.6c8.312-4.318 13.476-12.819 13.476-22.185v-30.685c0-8.284 6.716-15 15-15h180c8.284 0 15 6.716 15 15v30.686c0 9.366 5.163 17.867 13.476 22.185l72.379 37.6c18.286 9.499 29.646 28.201 29.646 48.807v202.722c-.002 30.327-24.675 55-55.002 55z" fill="#fff5f4"/><path d="m421.5 512h-331c-30.327 0-55-24.673-55-55v-202.723c0-20.606 11.359-39.308 29.646-48.807l72.379-37.6c8.312-4.318 13.476-12.819 13.476-22.185v-50.685c0-8.284 6.716-15 15-15h180c8.284 0 15 6.716 15 15v50.686c0 9.366 5.163 17.867 13.476 22.185l72.379 37.6c18.286 9.499 29.646 28.201 29.646 48.807v202.722c-.002 30.327-24.675 55-55.002 55z" fill="#fff5f4"/><path d="m446.854 205.47-72.379-37.6c-8.312-4.317-13.475-12.818-13.475-22.184v-50.686c0-8.284-6.716-15-15-15h-90v432h165.5c30.327 0 55-24.673 55-55v-202.723c0-20.606-11.359-39.308-29.646-48.807z" fill="#efe2db"/><path d="m371 110h-230c-19.299 0-35-15.701-35-35v-40c0-19.299 15.701-35 35-35h230c19.299 0 35 15.701 35 35v40c0 19.299-15.701 35-35 35z" fill="#f52001"/><path d="m371 0h-115v110h115c19.299 0 35-15.701 35-35v-40c0-19.299-15.701-35-35-35z" fill="#bf1901"/><path d="m346 353c0 5.523-4.477 10-10 10h-50v50c0 5.523-4.477 10-10 10h-40c-5.523 0-10-4.477-10-10v-50h-50c-5.523 0-10-4.477-10-10v-40c0-5.523 4.477-10 10-10h50v-50c0-5.523 4.477-10 10-10h40c5.523 0 10 4.477 10 10v50h50c5.523 0 10 4.477 10 10z" fill="#ff4a07"/><path d="m256 61c-8.284 0-15 6.716-15 15v34h30v-34c0-8.284-6.716-15-15-15z" fill="#bf1901"/><path d="m196 61c-8.284 0-15 6.716-15 15v34h30v-34c0-8.284-6.716-15-15-15z" fill="#bf1901"/><path d="m316 61c-8.284 0-15 6.716-15 15v34h30v-34c0-8.284-6.716-15-15-15z" fill="#890d00"/><path d="m271 76c0-8.284-6.716-15-15-15v49h15z" fill="#890d00"/><path d="m336 303h-50v-50c0-5.523-4.477-10-10-10h-20v180h20c5.523 0 10-4.477 10-10v-50h50c5.523 0 10-4.477 10-10v-40c0-5.523-4.477-10-10-10z" fill="#f52001"/></svg>