<svg height="512" viewBox="0 0 128 128" width="512" xmlns="http://www.w3.org/2000/svg"><g id="Circle_Grid" data-name="Circle Grid"><circle cx="64" cy="64" fill="#69b0ee" r="64"/></g><g id="icon"><path d="m83.218 36.133s-.079 2.209 2.009 5.371a2.656 2.656 0 0 1 .381.868 13.74 13.74 0 0 1 .208 4.695l5.632 7.033a2.348 2.348 0 0 1 -1.04 3.69 5.854 5.854 0 0 1 -2.15.284.484.484 0 0 0 -.428.208 3.035 3.035 0 0 0 -.236 2.538s1.6 1.66-2.661 1.985a.627.627 0 0 0 -.117 1.128l2.415.737a.975.975 0 0 1 .651 1.235 2.015 2.015 0 0 1 -.63.924s-.568 1.137 0 3.735c.527 2.411 2.08 3.843-5.958 4.815a6.62 6.62 0 0 0 -4.142 2.162 41.093 41.093 0 0 0 -6.329 10.271l-19.923-16.387v-7.506l3.681-4.98.361-6.568 1.227-8.342 5.271-2.339 7.217-3.609 4.691-6.568h9.671z" fill="#fed19a"/><path d="m69.523 53.454s1.908-1.041 2.347-4.909a6.068 6.068 0 0 1 1.066-2.85l2.342-3.285a5.9 5.9 0 0 0 1.058-4.151 12.088 12.088 0 0 0 -1.076-3.751s.642-.988 5.7-.7a1.99 1.99 0 0 1 1.543.859 6.728 6.728 0 0 1 .711 1.464s7.47-7.578-4.763-12.991c0 0-24.376-7.145-33.758 8.372a21.531 21.531 0 0 0 -5.673 13.439 17.888 17.888 0 0 0 2.082 9c1.673 3.2 4.745 8.27 8.6 11.05a5.274 5.274 0 0 0 3.932.959c1.9-.312 4.281-1.466 4.194-5.294-.141-6.346-.285-21.43 11.695-7.212z" fill="#575b6d"/><path d="m80.241 106.5c-1.341-17.546-21.284-31.647-28.315-36.1a2.63 2.63 0 0 0 -3.732 1 34.2 34.2 0 0 1 -5.982 8.138c-3.982 4.02-10.121 12.786-7.331 26.962z" fill="#ef5261"/><path d="m73.015 57.235a1.078 1.078 0 0 1 -.674-.286l-9.751-8.742a1.082 1.082 0 0 1 1.469-1.588l9.752 8.742a1.082 1.082 0 0 1 -.8 1.874z" fill="#eeefee"/><path d="m93.769 56.064-1.414 6.023-.412 1.764-1.343 5.706-.431 1.835-.075.314a7.807 7.807 0 0 1 -8.031 6.009l-1.317-.073a10.3 10.3 0 0 1 -9.708-10.851l.623-11.212a1.1 1.1 0 0 1 1.155-1.033l8.3.461a1.984 1.984 0 0 0 1.42-.484 9.248 9.248 0 0 1 4.78-2.2 7.443 7.443 0 0 1 4.792 1.093l.754.468a2.016 2.016 0 0 1 .907 2.18z" fill="#eeefee"/><g fill="#dbd8dd"><path d="m92.355 62.087-.412 1.764c-6.3-.747-14.743-4.2-15.106-4.349a.9.9 0 0 1 .685-1.666c.091.038 8.761 3.582 14.833 4.251z"/><path d="m91.315 66.177-.415 1.764c-6.3-.747-14.743-4.2-15.106-4.349a.9.9 0 0 1 .685-1.666c.094.038 8.765 3.581 14.836 4.251z"/><path d="m90.6 69.557-.431 1.835a20.813 20.813 0 0 1 -2.452 0 31.668 31.668 0 0 1 -13.569-4.343.9.9 0 0 1 .959-1.528c.081.053 7.649 4.73 15.493 4.036z"/></g></g></svg>